<?xml version="1.0" encoding="utf-8"?>
<!-- Generator: Adobe Illustrator 23.0.4, SVG Export Plug-In . SVG Version: 6.00 Build 0)  -->
<svg version="1.1" id="Capa_1" xmlns="http://www.w3.org/2000/svg" xmlns:xlink="http://www.w3.org/1999/xlink" x="0px" y="0px"
	 viewBox="0 0 300 300" style="enable-background:new 0 0 300 300;" xml:space="preserve">
<style type="text/css">
	.st0{fill:#FFFFFF;}
</style>
<title>games, joystick, gamepad</title>
<g>
	<path class="st0" d="M112,191.9c0,3.9-3.1,7-7,7h-8.7v8.7c0,3.9-3.1,7-7,7s-7-3.1-7-7v-8.7h-8.7c-3.9,0-7-3.1-7-7c0-3.9,3.1-7,7-7
		h8.7v-8.7c0-3.9,3.1-7,7-7s7,3.1,7,7v8.7h8.7C108.9,184.9,112,188,112,191.9z M233.5,191.9c0,12.6-10.2,22.8-22.8,22.8
		c-12.6,0-22.8-10.2-22.8-22.8c0-12.6,10.2-22.8,22.8-22.8c0,0,0,0,0,0C223.3,169.2,233.5,179.3,233.5,191.9L233.5,191.9z
		 M219.5,191.9c0-4.8-3.9-8.7-8.7-8.7c-4.8,0-8.7,3.9-8.7,8.7c0,4.8,3.9,8.7,8.7,8.7c0,0,0,0,0,0
		C215.6,200.6,219.4,196.7,219.5,191.9L219.5,191.9z M266.2,278.5c-8.9,4.3-18.7,6.1-28.5,5.2h-0.1c-0.1,0-0.2,0-0.2,0
		c-8.2-0.7-16.2-3.2-23.4-7.4l-34.8-20.6c-18-10.4-40.3-10.4-58.3,0L86,276.2c-8.5,5.1-18.3,7.7-28.2,7.7c-1.6,0-3.1-0.1-4.7-0.3
		h-0.1c0,0-0.1,0-0.1,0c-6.6-0.6-13.1-2.4-19.2-5.2c-20-9.5-29.3-32.8-21.4-53.5L32,172.7c9.6-25.3,33.8-42.1,60.9-42.2H143V87.3
		c0.1-5.1-3.9-9.3-9-9.4s-9.3,3.9-9.4,9c0,0.1,0,0.3,0,0.4v8.4c0,12.3-10,22.3-22.3,22.3C90,118,80,108,80,95.7V23.1
		c0-3.9,3.1-7,7-7s7,3.1,7,7v72.7c0,4.5,3.7,8.2,8.2,8.2c4.5,0,8.2-3.7,8.2-8.2c0,0,0,0,0,0v-8.4c-0.2-12.9,10.1-23.4,22.9-23.6
		c12.9-0.2,23.4,10.1,23.6,22.9c0,0.2,0,0.4,0,0.7v43.2h50.1c27.1,0.1,51.3,16.9,60.9,42.2l19.6,52.3
		C295.5,245.7,286.2,268.9,266.2,278.5z M267,240c0-3.4-0.6-6.9-1.8-10.1l-19.6-52.3c-7.5-19.8-26.5-33-47.7-33H92.9h-0.1
		c-21.2,0.1-40.1,13.2-47.7,33.1l-19.6,52.3c-5.3,13.9,1,29.5,14.4,35.9c4.2,2,8.7,3.3,13.3,3.8c5.8-0.6,11.3-2.5,16.3-5.5
		l34.8-20.6c10.1-6,21.6-9.4,33.4-9.9v0c0.7,0,1.5,0,2.3,0h0.5c6.2-0.4,12.5-0.1,18.7,0.8h0c9.6,1.1,18.9,4.3,27.2,9.1l24.4,14.5
		l0,0c12.6,7.4,23.3,14.7,40,7.8C260.6,261,266.9,251,267,240z"/>
</g>
</svg>
