<?xml version="1.0" encoding="utf-8"?>
<!-- Generator: Adobe Illustrator 23.0.4, SVG Export Plug-In . SVG Version: 6.00 Build 0)  -->
<svg version="1.1" id="Capa_1" xmlns="http://www.w3.org/2000/svg" xmlns:xlink="http://www.w3.org/1999/xlink" x="0px" y="0px"
	 viewBox="0 0 300 300" style="enable-background:new 0 0 300 300;" xml:space="preserve">
<style type="text/css">
	.st0{fill:#FFFFFF;}
</style>
<path class="st0" d="M218.8,35.7C196.9,16.1,167.6,6.8,138.3,10C92.3,15.1,54.3,52,47.9,97.6c-4.5,32.3,5.9,64,28.5,87
	c23.7,24.1,40.7,47.8,52.1,72.4l13,28.1c1.5,3.3,4.8,5.4,8.5,5.4s7-2.1,8.5-5.4l8.6-18.7c12.7-27.6,32-55.2,58.8-84.2
	c17.6-19.1,27.2-43.8,27.2-69.8C253.1,83.2,240.6,55.2,218.8,35.7z M150,168.8c-31,0-56.2-25.2-56.2-56.2S119,56.2,150,56.2
	s56.2,25.2,56.2,56.2S181,168.8,150,168.8z"/>
</svg>
